<?xml version="1.0" encoding="UTF-8"?>
<score-partwise version="4.0"><work><work-title>Minuet in G</work-title></work><part-list><score-part id="P1"><part-name print-object="no">Piano</part-name></score-part></part-list><part id="P1"><measure number="1"><attributes><divisions>2</divisions><key><fifths>1</fifths></key><time><beats>3</beats><beat-type>4</beat-type></time><clef><sign>G</sign><line>2</line></clef></attributes><note><pitch><step>D</step><octave>5</octave></pitch><duration>2</duration><type>quarter</type></note><note><pitch><step>G</step><octave>4</octave></pitch><duration>1</duration><type>eighth</type></note><note><pitch><step>A</step><octave>4</octave></pitch><duration>1</duration><type>eighth</type></note><note><pitch><step>B</step><octave>4</octave></pitch><duration>1</duration><type>eighth</type></note><note><pitch><step>C</step><octave>5</octave></pitch><duration>1</duration><type>eighth</type></note></measure><measure number="2"><note><pitch><step>D</step><octave>5</octave></pitch><duration>2</duration><type>quarter</type></note><note><pitch><step>G</step><octave>4</octave></pitch><duration>2</duration><type>quarter</type></note><note><pitch><step>G</step><octave>4</octave></pitch><duration>2</duration><type>quarter</type></note></measure><measure number="3"><note><pitch><step>E</step><octave>5</octave></pitch><duration>2</duration><type>quarter</type></note><note><pitch><step>C</step><octave>5</octave></pitch><duration>1</duration><type>eighth</type></note><note><pitch><step>D</step><octave>5</octave></pitch><duration>1</duration><type>eighth</type></note><note><pitch><step>E</step><octave>5</octave></pitch><duration>1</duration><type>eighth</type></note><note><pitch><step>F</step><alter>1</alter><octave>5</octave></pitch><duration>1</duration><type>eighth</type></note></measure><measure number="4"><note><pitch><step>G</step><octave>5</octave></pitch><duration>2</duration><type>quarter</type></note><note><pitch><step>G</step><octave>4</octave></pitch><duration>2</duration><type>quarter</type></note><note><pitch><step>G</step><octave>4</octave></pitch><duration>2</duration><type>quarter</type></note></measure><measure number="5"><note><pitch><step>C</step><octave>5</octave></pitch><duration>2</duration><type>quarter</type></note><note><pitch><step>D</step><octave>5</octave></pitch><duration>1</duration><type>eighth</type></note><note><pitch><step>C</step><octave>5</octave></pitch><duration>1</duration><type>eighth</type></note><note><pitch><step>B</step><octave>4</octave></pitch><duration>1</duration><type>eighth</type></note><note><pitch><step>A</step><octave>4</octave></pitch><duration>1</duration><type>eighth</type></note></measure><measure number="6"><note><pitch><step>B</step><octave>4</octave></pitch><duration>2</duration><type>quarter</type></note><note><pitch><step>C</step><octave>5</octave></pitch><duration>1</duration><type>eighth</type></note><note><pitch><step>B</step><octave>4</octave></pitch><duration>1</duration><type>eighth</type></note><note><pitch><step>A</step><octave>4</octave></pitch><duration>1</duration><type>eighth</type></note><note><pitch><step>G</step><octave>4</octave></pitch><duration>1</duration><type>eighth</type></note></measure><measure number="7"><note><pitch><step>F</step><alter>1</alter><octave>4</octave></pitch><duration>2</duration><type>quarter</type></note><note><pitch><step>G</step><octave>4</octave></pitch><duration>1</duration><type>eighth</type></note><note><pitch><step>A</step><octave>4</octave></pitch><duration>1</duration><type>eighth</type></note><note><pitch><step>B</step><octave>4</octave></pitch><duration>1</duration><type>eighth</type></note><note><pitch><step>G</step><octave>4</octave></pitch><duration>1</duration><type>eighth</type></note></measure><measure number="8"><note><pitch><step>A</step><octave>4</octave></pitch><duration>6</duration><type>half</type><dot/></note></measure></part></score-partwise>
