<?xml version="1.0" encoding="UTF-8"?>
<score-partwise version="4.0">
  <work><work-title>Ode to Joy (Two Hands)</work-title></work>
  <part-list><score-part id="P1"><part-name print-object="no">Piano</part-name></score-part></part-list>
  <part id="P1">
    <!-- RH: the theme. LH: I/V long tones with a V-I cadence in the final
         bar - the classic first hands-together arrangement. -->
    <measure number="1">
      <attributes>
        <divisions>2</divisions>
        <key><fifths>0</fifths></key>
        <time><beats>4</beats><beat-type>4</beat-type></time>
        <staves>2</staves>
        <clef number="1"><sign>G</sign><line>2</line></clef>
        <clef number="2"><sign>F</sign><line>4</line></clef>
      </attributes>
      <note><pitch><step>E</step><octave>4</octave></pitch><duration>2</duration><voice>1</voice><type>quarter</type><staff>1</staff></note>
      <note><pitch><step>E</step><octave>4</octave></pitch><duration>2</duration><voice>1</voice><type>quarter</type><staff>1</staff></note>
      <note><pitch><step>F</step><octave>4</octave></pitch><duration>2</duration><voice>1</voice><type>quarter</type><staff>1</staff></note>
      <note><pitch><step>G</step><octave>4</octave></pitch><duration>2</duration><voice>1</voice><type>quarter</type><staff>1</staff></note>
      <backup><duration>8</duration></backup>
      <note><pitch><step>C</step><octave>3</octave></pitch><duration>8</duration><voice>2</voice><type>whole</type><staff>2</staff></note>
    </measure>
    <measure number="2">
      <note><pitch><step>G</step><octave>4</octave></pitch><duration>2</duration><voice>1</voice><type>quarter</type><staff>1</staff></note>
      <note><pitch><step>F</step><octave>4</octave></pitch><duration>2</duration><voice>1</voice><type>quarter</type><staff>1</staff></note>
      <note><pitch><step>E</step><octave>4</octave></pitch><duration>2</duration><voice>1</voice><type>quarter</type><staff>1</staff></note>
      <note><pitch><step>D</step><octave>4</octave></pitch><duration>2</duration><voice>1</voice><type>quarter</type><staff>1</staff></note>
      <backup><duration>8</duration></backup>
      <note><pitch><step>G</step><octave>2</octave></pitch><duration>8</duration><voice>2</voice><type>whole</type><staff>2</staff></note>
    </measure>
    <measure number="3">
      <note><pitch><step>C</step><octave>4</octave></pitch><duration>2</duration><voice>1</voice><type>quarter</type><staff>1</staff></note>
      <note><pitch><step>C</step><octave>4</octave></pitch><duration>2</duration><voice>1</voice><type>quarter</type><staff>1</staff></note>
      <note><pitch><step>D</step><octave>4</octave></pitch><duration>2</duration><voice>1</voice><type>quarter</type><staff>1</staff></note>
      <note><pitch><step>E</step><octave>4</octave></pitch><duration>2</duration><voice>1</voice><type>quarter</type><staff>1</staff></note>
      <backup><duration>8</duration></backup>
      <note><pitch><step>C</step><octave>3</octave></pitch><duration>8</duration><voice>2</voice><type>whole</type><staff>2</staff></note>
    </measure>
    <measure number="4">
      <note><pitch><step>E</step><octave>4</octave></pitch><duration>3</duration><voice>1</voice><type>quarter</type><dot/><staff>1</staff></note>
      <note><pitch><step>D</step><octave>4</octave></pitch><duration>1</duration><voice>1</voice><type>eighth</type><staff>1</staff></note>
      <note><pitch><step>D</step><octave>4</octave></pitch><duration>4</duration><voice>1</voice><type>half</type><staff>1</staff></note>
      <backup><duration>8</duration></backup>
      <note><pitch><step>G</step><octave>2</octave></pitch><duration>8</duration><voice>2</voice><type>whole</type><staff>2</staff></note>
    </measure>
    <measure number="5">
      <note><pitch><step>E</step><octave>4</octave></pitch><duration>2</duration><voice>1</voice><type>quarter</type><staff>1</staff></note>
      <note><pitch><step>E</step><octave>4</octave></pitch><duration>2</duration><voice>1</voice><type>quarter</type><staff>1</staff></note>
      <note><pitch><step>F</step><octave>4</octave></pitch><duration>2</duration><voice>1</voice><type>quarter</type><staff>1</staff></note>
      <note><pitch><step>G</step><octave>4</octave></pitch><duration>2</duration><voice>1</voice><type>quarter</type><staff>1</staff></note>
      <backup><duration>8</duration></backup>
      <note><pitch><step>C</step><octave>3</octave></pitch><duration>8</duration><voice>2</voice><type>whole</type><staff>2</staff></note>
    </measure>
    <measure number="6">
      <note><pitch><step>G</step><octave>4</octave></pitch><duration>2</duration><voice>1</voice><type>quarter</type><staff>1</staff></note>
      <note><pitch><step>F</step><octave>4</octave></pitch><duration>2</duration><voice>1</voice><type>quarter</type><staff>1</staff></note>
      <note><pitch><step>E</step><octave>4</octave></pitch><duration>2</duration><voice>1</voice><type>quarter</type><staff>1</staff></note>
      <note><pitch><step>D</step><octave>4</octave></pitch><duration>2</duration><voice>1</voice><type>quarter</type><staff>1</staff></note>
      <backup><duration>8</duration></backup>
      <note><pitch><step>G</step><octave>2</octave></pitch><duration>8</duration><voice>2</voice><type>whole</type><staff>2</staff></note>
    </measure>
    <measure number="7">
      <note><pitch><step>C</step><octave>4</octave></pitch><duration>2</duration><voice>1</voice><type>quarter</type><staff>1</staff></note>
      <note><pitch><step>C</step><octave>4</octave></pitch><duration>2</duration><voice>1</voice><type>quarter</type><staff>1</staff></note>
      <note><pitch><step>D</step><octave>4</octave></pitch><duration>2</duration><voice>1</voice><type>quarter</type><staff>1</staff></note>
      <note><pitch><step>E</step><octave>4</octave></pitch><duration>2</duration><voice>1</voice><type>quarter</type><staff>1</staff></note>
      <backup><duration>8</duration></backup>
      <note><pitch><step>C</step><octave>3</octave></pitch><duration>8</duration><voice>2</voice><type>whole</type><staff>2</staff></note>
    </measure>
    <measure number="8">
      <note><pitch><step>D</step><octave>4</octave></pitch><duration>3</duration><voice>1</voice><type>quarter</type><dot/><staff>1</staff></note>
      <note><pitch><step>C</step><octave>4</octave></pitch><duration>1</duration><voice>1</voice><type>eighth</type><staff>1</staff></note>
      <note><pitch><step>C</step><octave>4</octave></pitch><duration>4</duration><voice>1</voice><type>half</type><staff>1</staff></note>
      <backup><duration>8</duration></backup>
      <note><pitch><step>G</step><octave>2</octave></pitch><duration>4</duration><voice>2</voice><type>half</type><staff>2</staff></note>
      <note><pitch><step>C</step><octave>3</octave></pitch><duration>4</duration><voice>2</voice><type>half</type><staff>2</staff></note>
    </measure>
  </part>
</score-partwise>
